<?xml version="1.0" standalone="no"?>
<!DOCTYPE svg PUBLIC "-//W3C//DTD SVG 20010904//EN"
 "http://www.w3.org/TR/2001/REC-SVG-20010904/DTD/svg10.dtd">
<svg version="1.0" xmlns="http://www.w3.org/2000/svg"
 width="300.000000pt" height="300.000000pt" viewBox="0 0 300.000000 300.000000"
 preserveAspectRatio="xMidYMid meet">

<g transform="translate(0.000000,300.000000) scale(0.100000,-0.100000)"
fill="#000000" stroke="none">
<path d="M1406 1993 c-3 -4 -34 -10 -67 -14 -37 -4 -73 -15 -90 -28 -15 -12
-36 -21 -45 -21 -32 0 -84 -33 -105 -67 -46 -75 -44 -169 7 -300 19 -48 32
-69 41 -66 29 11 10 -17 -39 -59 -68 -57 -163 -128 -172 -128 -4 0 -1 10 5 23
11 21 11 21 -7 6 -114 -95 -126 -103 -138 -94 -48 36 -128 84 -164 98 -52 21
-143 22 -181 2 -39 -19 -78 -68 -90 -110 -5 -19 -19 -46 -30 -61 -11 -14 -23
-42 -27 -63 -3 -20 -13 -51 -21 -70 -36 -80 5 -214 96 -313 91 -100 208 -141
284 -101 36 18 91 33 190 48 48 8 102 55 118 103 26 77 2 225 -47 300 -9 13
-14 25 -12 27 23 22 323 265 327 265 4 -1 21 -14 40 -30 l35 -30 -35 -30 c-19
-16 -50 -40 -69 -53 -65 -43 -103 -137 -102 -254 0 -88 22 -166 61 -219 28
-40 82 -74 116 -74 9 0 58 -20 109 -45 52 -25 107 -45 122 -45 43 1 106 33
138 71 40 47 83 141 91 199 l7 48 81 6 c45 3 141 8 213 12 l131 6 7 -44 c9
-57 55 -155 95 -200 75 -86 177 -90 269 -13 19 16 69 45 111 66 89 43 122 76
147 151 24 69 24 193 1 271 -21 68 -98 157 -136 157 -13 0 -36 11 -52 25 -16
13 -46 27 -67 30 -20 3 -57 12 -82 20 -59 20 -86 19 -137 -4 -68 -32 -129
-128 -153 -246 -9 -44 -9 -59 0 -65 21 -13 -31 -20 -160 -20 -84 0 -120 3
-110 10 10 7 -12 10 -73 10 -61 0 -89 4 -91 13 -3 6 -12 38 -22 71 -10 32 -28
74 -41 92 l-23 34 21 68 c12 37 29 85 40 108 10 23 19 44 19 48 0 4 10 21 23
37 18 25 22 43 21 94 -2 161 -178 355 -324 355 -26 0 -50 -3 -54 -7z m269
-128 c36 -44 65 -97 65 -117 0 -7 -13 10 -29 38 -16 27 -58 77 -93 109 -62 58
-62 58 -19 34 24 -13 58 -42 76 -64z m-160 30 c56 -33 117 -100 149 -164 36
-70 32 -85 -5 -25 -53 83 -91 125 -152 171 -65 47 -60 58 8 18z m-147 -26
c127 -61 258 -228 277 -354 6 -36 2 -31 -33 40 -64 127 -157 228 -302 327 -39
27 -14 21 58 -13z m-689 -581 c137 -66 255 -228 274 -380 8 -60 -8 -64 -17 -5
-15 98 -114 252 -208 325 -29 22 -82 55 -118 72 -52 25 -58 30 -30 25 19 -3
64 -20 99 -37z m1922 -118 c31 -98 29 -234 -5 -330 -14 -40 -30 -78 -35 -83
-5 -5 -3 12 6 39 12 36 17 87 16 194 0 122 -3 156 -22 215 -34 107 -34 113 -7
70 15 -22 36 -69 47 -105z m-926 39 c74 -145 73 -333 -2 -471 -40 -74 -57 -79
-24 -8 42 89 54 158 48 275 -4 94 -15 138 -62 249 -17 40 16 4 40 -45z m-134
-89 c32 -85 36 -193 10 -276 -11 -38 -30 -80 -41 -94 l-20 -25 19 45 c54 125
49 278 -14 405 l-34 70 29 -35 c17 -19 40 -59 51 -90z m1161 61 c26 -59 35
-182 18 -250 -16 -68 -30 -75 -17 -8 12 68 3 191 -21 261 -22 65 -9 64 20 -3z
m-2109 -29 c107 -57 203 -191 213 -294 l4 -53 -15 54 c-40 139 -170 277 -305
322 -18 7 -14 7 15 3 22 -3 62 -17 88 -32z m2215 -97 c2 -45 -1 -91 -7 -105
-9 -20 -10 -15 -5 30 5 48 -6 144 -22 198 -3 9 3 4 12 -13 11 -19 19 -58 22
-110z m-1442 71 c33 -53 42 -89 43 -157 1 -79 -19 -143 -59 -190 l-30 -34 28
55 c24 48 27 65 27 156 0 94 -2 105 -31 162 -24 46 -28 58 -14 50 10 -6 26
-25 36 -42z m-881 -90 c54 -23 130 -101 155 -158 12 -28 24 -76 26 -107 l4
-56 -21 65 c-38 117 -119 211 -220 255 l-34 14 28 1 c15 0 43 -6 62 -14z"/>
</g>
</svg>
